<?xml version="1.0" encoding="UTF-8" standalone="no"?>
<!-- Created with Inkscape (http://www.inkscape.org/) -->

<svg
   version="1.1"
   id="svg2"
   width="1280"
   height="1280"
   viewBox="0 0 1280 1280"
   sodipodi:docname="CrowdSec-DEF (1).ai"
   xmlns:inkscape="http://www.inkscape.org/namespaces/inkscape"
   xmlns:sodipodi="http://sodipodi.sourceforge.net/DTD/sodipodi-0.dtd"
   xmlns="http://www.w3.org/2000/svg"
   xmlns:svg="http://www.w3.org/2000/svg">
  <defs
     id="defs6">
    <clipPath
       clipPathUnits="userSpaceOnUse"
       id="clipPath16">
      <path
         d="M 0,960 H 960 V 0 H 0 Z"
         id="path14" />
    </clipPath>
  </defs>
  <sodipodi:namedview
     id="namedview4"
     pagecolor="#ffffff"
     bordercolor="#000000"
     borderopacity="0.25"
     inkscape:showpageshadow="2"
     inkscape:pageopacity="0.0"
     inkscape:pagecheckerboard="0"
     inkscape:deskcolor="#d1d1d1" />
  <g
     id="g8"
     inkscape:groupmode="layer"
     inkscape:label="CrowdSec-DEF (1)"
     transform="matrix(1.3333333,0,0,-1.3333333,0,1280)">
    <g
       id="g10">
      <g
         id="g12"
         clip-path="url(#clipPath16)">
        <g
           id="g18"
           transform="translate(257.5225,317.0957)">
          <path
             d="m 0,0 c -3.799,-4.131 -8.507,-7.433 -14.122,-9.91 -5.617,-2.478 -12.183,-3.717 -19.696,-3.717 -7.599,0 -14.227,1.279 -19.883,3.84 -5.657,2.559 -10.364,5.925 -14.122,10.097 -3.759,4.169 -6.586,8.919 -8.485,14.245 -1.901,5.327 -2.849,10.777 -2.849,16.352 0,5.574 0.948,11.044 2.849,16.413 1.899,5.368 4.726,10.137 8.485,14.309 3.758,4.169 8.465,7.535 14.122,10.096 5.656,2.558 12.284,3.839 19.883,3.839 7.513,0 14.079,-1.259 19.696,-3.778 C -8.507,69.267 -3.799,65.902 0,61.69 l -10.282,-8.547 c -2.644,2.973 -5.946,5.367 -9.91,7.185 -3.964,1.816 -8.59,2.725 -13.874,2.725 -7.02,0 -12.883,-1.587 -17.591,-4.761 -4.707,-3.175 -8.238,-7.131 -10.591,-11.869 -2.354,-4.738 -3.531,-9.891 -3.531,-15.454 0,-5.565 1.177,-10.717 3.531,-15.455 2.353,-4.739 5.884,-8.696 10.591,-11.869 4.708,-3.175 10.571,-4.76 17.591,-4.76 5.203,0 9.765,0.867 13.688,2.601 3.922,1.735 7.205,4.045 9.849,6.937 l 10.281,-8.535 z"
             style="fill:#4e4a99;fill-opacity:1;fill-rule:nonzero;stroke:none"
             id="path20" />
        </g>
        <g
           id="g22"
           transform="translate(262.4766,368.5039)">
          <path
             d="m 0,0 h 12.512 v -6.317 c 1.32,1.403 2.889,2.621 4.707,3.654 1.816,1.032 3.757,1.858 5.822,2.477 2.063,0.62 4.169,1.053 6.318,1.301 2.146,0.248 4.252,0.288 6.318,0.124 V -10.9 c -4.626,0.412 -8.424,0.164 -11.397,-0.745 -2.973,-0.909 -5.327,-2.353 -7.061,-4.334 -1.734,-1.983 -2.954,-4.379 -3.655,-7.186 -0.702,-2.808 -1.052,-5.945 -1.052,-9.414 v -30.35 H 0 Z"
             style="fill:#4e4a99;fill-opacity:1;fill-rule:nonzero;stroke:none"
             id="path24" />
        </g>
        <g
           id="g26"
           transform="translate(329.6177,360.2041)">
          <path
             d="m 0,0 c -4.626,0 -8.466,-1.157 -11.521,-3.468 -3.056,-2.313 -5.348,-5.183 -6.875,-8.609 -1.529,-3.429 -2.291,-7.166 -2.291,-11.211 0,-4.048 0.762,-7.785 2.291,-11.211 1.527,-3.428 3.819,-6.299 6.875,-8.609 3.055,-2.314 6.895,-3.469 11.521,-3.469 4.624,0 8.464,1.155 11.521,3.469 3.054,2.31 5.346,5.181 6.875,8.609 1.527,3.426 2.291,7.163 2.291,11.211 0,4.045 -0.764,7.782 -2.291,11.211 -1.529,3.426 -3.821,6.296 -6.875,8.609 C 8.464,-1.157 4.624,0 0,0 m 0,-55.992 c -7.352,0 -13.503,1.61 -18.458,4.831 -4.955,3.221 -8.652,7.266 -11.087,12.14 -2.437,4.872 -3.676,10.116 -3.716,15.733 -0.043,5.615 1.177,10.858 3.654,15.732 2.478,4.871 6.173,8.919 11.087,12.14 4.913,3.221 11.087,4.831 18.52,4.831 7.433,0 13.605,-1.61 18.52,-4.831 4.912,-3.221 8.609,-7.269 11.086,-12.14 2.478,-4.874 3.695,-10.117 3.655,-15.732 -0.043,-5.617 -1.282,-10.861 -3.717,-15.733 -2.437,-4.874 -6.131,-8.919 -11.086,-12.14 C 13.502,-54.382 7.349,-55.992 0,-55.992"
             style="fill:#4e4a99;fill-opacity:1;fill-rule:nonzero;stroke:none"
             id="path28" />
        </g>
        <g
           id="g30"
           transform="translate(428.3486,320.9355)">
          <path
             d="M 0,0 13.131,47.445 H 27.872 L 7.309,-15.484 H -7.433 L -20.44,32.827 -33.447,-15.484 h -14.741 l -20.564,62.929 h 14.741 L -40.879,0 l 13.13,47.445 h 14.37 z"
             style="fill:#4e4a99;fill-opacity:1;fill-rule:nonzero;stroke:none"
             id="path32" />
        </g>
        <g
           id="g34"
           transform="translate(487.9961,360.2041)">
          <path
             d="m 0,0 c -3.459,0 -6.484,-0.661 -9.078,-1.981 -2.593,-1.323 -4.755,-3.079 -6.484,-5.265 -1.73,-2.19 -3.027,-4.689 -3.891,-7.495 -0.865,-2.809 -1.297,-5.657 -1.297,-8.547 0,-2.893 0.432,-5.741 1.297,-8.548 0.864,-2.809 2.161,-5.308 3.891,-7.494 1.729,-2.19 3.891,-3.945 6.484,-5.266 2.594,-1.321 5.619,-1.981 9.078,-1.981 3.457,0 6.484,0.66 9.078,1.981 2.594,1.321 4.754,3.076 6.485,5.266 1.728,2.186 3.025,4.685 3.89,7.494 0.863,2.807 1.297,5.655 1.297,8.548 0,2.89 -0.434,5.738 -1.297,8.547 -0.865,2.806 -2.162,5.305 -3.89,7.495 -1.731,2.186 -3.891,3.942 -6.485,5.265 C 6.484,-0.661 3.457,0 0,0 M 20.625,31.961 H 33.262 V -54.753 H 20.625 v 8.919 c -2.643,-3.388 -5.803,-5.946 -9.477,-7.681 -3.675,-1.734 -7.515,-2.704 -11.519,-2.911 -4.008,-0.205 -7.97,0.394 -11.892,1.797 -3.924,1.403 -7.434,3.487 -10.529,6.255 -3.098,2.767 -5.618,6.256 -7.557,10.468 -1.942,4.212 -2.911,9.084 -2.911,14.618 0,5.531 0.971,10.405 2.917,14.617 1.943,4.212 4.467,7.699 7.57,10.468 3.102,2.765 6.619,4.85 10.549,6.256 3.93,1.403 7.9,2.001 11.913,1.796 4.014,-0.207 7.862,-1.177 11.543,-2.912 3.682,-1.734 6.846,-4.294 9.495,-7.68 z"
             style="fill:#4e4a99;fill-opacity:1;fill-rule:nonzero;stroke:none"
             id="path36" />
        </g>
        <g
           id="g38"
           transform="translate(563.127,392.6602)">
          <path
             d="m 0,0 c 6.689,-0.083 12.883,-1.136 18.581,-3.158 5.698,-2.026 10.858,-4.646 15.484,-7.866 l -6.936,-7.929 -1.486,-1.734 c -4.791,3.716 -9.52,6.255 -14.185,7.618 -4.666,1.363 -9.002,1.921 -13.007,1.673 -4.007,-0.249 -7.494,-1.136 -10.468,-2.664 -2.972,-1.529 -5.121,-3.344 -6.441,-5.451 -1.322,-2.105 -1.653,-4.295 -0.991,-6.565 0.66,-2.273 2.601,-4.317 5.822,-6.132 3.55,-1.981 7.618,-3.654 12.202,-5.017 4.583,-1.363 9.105,-2.849 13.565,-4.46 4.46,-1.61 8.526,-3.551 12.202,-5.822 3.674,-2.272 6.38,-5.307 8.113,-9.104 1.072,-2.397 1.714,-4.977 1.921,-7.743 0.205,-2.768 -0.187,-5.596 -1.177,-8.486 -0.662,-1.981 -1.653,-3.778 -2.973,-5.389 -1.323,-1.61 -2.849,-3.034 -4.583,-4.273 -3.469,-2.396 -7.393,-4.131 -11.769,-5.203 -4.378,-1.072 -8.548,-1.65 -12.512,-1.734 -3.8,0 -7.371,0.269 -10.715,0.805 -3.344,0.538 -6.546,1.363 -9.6,2.478 -3.057,1.115 -6.07,2.558 -9.043,4.336 -2.974,1.774 -5.989,3.983 -9.043,6.627 l 6.812,7.804 1.735,1.982 c 5.12,-4.543 10.198,-7.742 15.237,-9.601 5.036,-1.857 10.693,-2.746 16.971,-2.663 3.303,0 6.421,0.722 9.352,2.168 2.931,1.444 5.142,3.221 6.628,5.327 1.487,2.106 1.961,4.355 1.425,6.751 -0.538,2.395 -2.54,4.624 -6.009,6.69 -2.395,1.403 -5.264,2.663 -8.609,3.778 -3.345,1.114 -6.813,2.229 -10.405,3.345 -3.593,1.114 -7.145,2.332 -10.654,3.654 -3.511,1.32 -6.648,2.911 -9.415,4.77 -2.767,1.857 -4.997,4.044 -6.689,6.565 -1.694,2.518 -2.499,5.553 -2.415,9.104 0.081,4.212 1.094,7.886 3.035,11.026 1.939,3.138 4.459,5.779 7.556,7.928 3.097,2.146 6.585,3.756 10.467,4.831 3.881,1.072 7.805,1.61 11.769,1.61 z"
             style="fill:#f8ab14;fill-opacity:1;fill-rule:nonzero;stroke:none"
             id="path40" />
        </g>
        <g
           id="g42"
           transform="translate(655.9102,341.7471)">
          <path
             d="m 0,0 c -0.414,2.478 -1.137,4.831 -2.168,7.061 -1.034,2.23 -2.396,4.211 -4.088,5.946 -1.693,1.734 -3.717,3.097 -6.07,4.088 -2.354,0.991 -5.017,1.486 -7.99,1.486 -2.973,0 -5.636,-0.495 -7.99,-1.486 -2.354,-0.991 -4.379,-2.354 -6.07,-4.088 -1.693,-1.735 -3.057,-3.716 -4.088,-5.946 C -39.498,4.831 -40.22,2.478 -40.632,0 H 0.124 Z m -20.44,-27.996 c 4.045,0 7.495,0.886 10.343,2.663 2.85,1.774 5.099,4.066 6.752,6.875 l 9.167,-7.061 c -2.725,-3.551 -6.277,-6.422 -10.653,-8.609 -4.379,-2.189 -9.581,-3.283 -15.609,-3.283 -5.039,0 -9.497,0.763 -13.378,2.292 -3.883,1.527 -7.206,3.592 -9.973,6.193 -2.768,2.602 -4.955,5.594 -6.565,8.982 -1.611,3.384 -2.664,6.894 -3.159,10.529 -0.415,3.138 -0.415,6.275 0,9.415 0.495,3.633 1.548,7.142 3.159,10.529 1.61,3.386 3.797,6.38 6.565,8.982 2.767,2.601 6.09,4.664 9.973,6.193 3.881,1.527 8.339,2.292 13.378,2.292 5.037,0 9.496,-0.765 13.378,-2.292 3.881,-1.529 7.205,-3.592 9.973,-6.193 C 5.677,16.909 7.866,13.915 9.477,10.529 11.087,7.142 12.14,3.633 12.635,0 c 0.413,-3.14 0.413,-6.277 0,-9.415 h -53.267 c 0.412,-2.478 1.134,-4.831 2.168,-7.061 1.031,-2.23 2.395,-4.211 4.088,-5.946 1.691,-1.734 3.716,-3.097 6.07,-4.088 2.354,-0.991 5.017,-1.486 7.99,-1.486 z"
             style="fill:#f8ab14;fill-opacity:1;fill-rule:nonzero;stroke:none"
             id="path44" />
        </g>
        <g
           id="g46"
           transform="translate(722.3086,307.6807)">
          <path
             d="m 0,0 c -4.378,-2.229 -9.662,-3.345 -15.856,-3.345 -7.351,0 -13.502,1.611 -18.457,4.831 -4.956,3.221 -8.653,7.267 -11.087,12.141 -2.438,4.871 -3.676,10.115 -3.717,15.731 -0.043,5.616 1.177,10.86 3.654,15.733 2.478,4.872 6.173,8.92 11.087,12.14 4.913,3.221 11.087,4.832 18.52,4.832 6.194,0 11.478,-1.116 15.856,-3.345 4.377,-2.23 7.929,-5.162 10.653,-8.795 L 1.486,42.737 c -1.652,2.89 -3.923,5.265 -6.812,7.123 -2.893,1.859 -6.402,2.787 -10.53,2.787 -4.626,0 -8.466,-1.157 -11.521,-3.468 -3.056,-2.313 -5.348,-5.183 -6.875,-8.61 -1.529,-3.427 -2.292,-7.165 -2.292,-11.211 0,-4.046 0.763,-7.784 2.292,-11.21 1.527,-3.428 3.819,-6.298 6.875,-8.61 3.055,-2.312 6.895,-3.468 11.521,-3.468 4.128,0 7.637,0.929 10.53,2.787 2.889,1.859 5.16,4.232 6.812,7.123 L 10.653,8.795 C 7.929,5.16 4.377,2.229 0,0"
             style="fill:#f8ab14;fill-opacity:1;fill-rule:nonzero;stroke:none"
             id="path48" />
        </g>
        <g
           id="g50"
           transform="translate(423.6294,441.3223)">
          <path
             d="m 0,0 c 32.694,0 59.482,49.953 66.114,111.278 6.943,0.111 12.665,5.16 13.85,11.787 0.131,0.731 0.222,1.476 0.238,2.241 0.139,-0.014 0.277,-0.036 0.419,-0.044 4.977,-0.259 9.222,3.566 9.481,8.543 0.171,3.278 -1.436,6.23 -3.971,7.944 5.015,2.231 8.516,7.249 8.516,13.092 0,7.168 -5.267,13.09 -12.139,14.148 1.194,1.53 1.91,3.449 1.91,5.539 0,4.918 -3.936,8.909 -8.829,9.014 2.368,1.181 4.436,2.958 5.796,5.089 3.363,5.271 3.901,29.04 -8.044,44.315 -4.923,6.296 -9.746,2.501 -10.051,-1.796 -0.936,-13.148 -1.051,-23.029 -4.462,-34.283 -0.697,4.291 -4.409,7.571 -8.897,7.571 -2.877,0 -5.434,-1.351 -7.086,-3.448 -1.02,6.916 -6.963,12.231 -14.163,12.231 -7.213,0 -13.165,-5.334 -14.168,-12.27 -1.651,2.119 -4.221,3.487 -7.115,3.487 -4.488,0 -8.201,-3.279 -8.897,-7.571 -3.411,11.254 -3.526,21.135 -4.461,34.283 -0.306,4.297 -5.13,8.092 -10.053,1.796 -11.944,-15.275 -11.406,-39.044 -8.044,-44.315 1.361,-2.131 3.429,-3.908 5.796,-5.089 -4.893,-0.105 -8.829,-4.096 -8.829,-9.014 0,-2.09 0.717,-4.009 1.91,-5.539 -6.871,-1.058 -12.139,-6.98 -12.139,-14.148 0,-5.843 3.502,-10.861 8.517,-13.092 -2.535,-1.714 -4.143,-4.666 -3.972,-7.944 0.259,-4.977 4.504,-8.802 9.481,-8.543 0.143,0.008 0.28,0.03 0.419,0.044 0.016,-0.736 0.103,-1.453 0.225,-2.158 1.164,-6.744 7.017,-11.881 14.094,-11.881 0.011,0 0.02,0.001 0.031,0.001 C -12.487,94.109 -18.58,44.995 -23.501,0.029 c 0.278,2.548 0.878,5.111 1.162,7.679 C -15.25,2.722 -7.943,0 0,0"
             style="fill:#4e4a99;fill-opacity:1;fill-rule:nonzero;stroke:none"
             id="path52" />
        </g>
        <g
           id="g54"
           transform="translate(452.5049,428.7871)">
          <path
             d="M 0,0 C 18.246,0 35.956,-0.287 52.862,-0.826 52.421,3.329 51.969,7.55 51.51,11.814 49.705,28.556 47.897,46.39 46.049,63.119 42.853,89.941 39.706,113.098 37.238,123.813 30.606,62.488 3.819,12.535 -28.875,12.535 c -7.944,0 -15.25,2.722 -22.34,7.708 -0.284,-2.568 -0.883,-5.131 -1.162,-7.679 -0.496,-4.529 -0.925,-9.01 -1.336,-13.418 C -36.55,-0.297 -18.552,0 0,0"
             style="fill:#3e3a78;fill-opacity:1;fill-rule:nonzero;stroke:none"
             id="path56" />
        </g>
        <g
           id="g58"
           transform="translate(397.229,562.8384)">
          <path
             d="m 0,0 c -2.722,0.56 -5.133,1.976 -6.949,3.954 -1.855,-0.402 -3.698,-0.935 -5.526,-1.629 -3.791,-1.438 -7.772,-1.406 -11.608,-0.006 -4.609,1.682 -9.342,2.511 -14.231,2.602 -6.634,0.123 -13.17,-0.477 -19.671,-2.489 0,-2.224 -0.045,-4.23 0.032,-6.231 0.019,-0.492 0.412,-0.984 0.679,-1.449 0.648,-1.127 1.52,-2.169 1.945,-3.372 0.966,-2.733 1.62,-5.576 2.581,-8.312 1.07,-3.044 3.315,-5.041 6.495,-5.454 3.696,-0.48 7.456,-0.829 11.173,-0.719 2.355,0.069 4.437,0.592 6.206,1.595 1.09,4.422 2.414,8.77 4.525,12.971 2.901,5.774 7.546,6.02 10.682,0 2.007,-3.853 3.286,-7.856 4.315,-11.931 1.081,-0.908 2.379,-1.534 3.873,-1.904 4.917,-1.218 9.83,-1.215 14.797,-0.162 0.825,0.175 1.579,0.422 2.275,0.73 0.507,3.012 1.002,5.769 1.479,8.184 C 6.626,-11.89 1.524,-6.723 0,0"
             style="fill:#4e4a99;fill-opacity:1;fill-rule:nonzero;stroke:none"
             id="path60" />
        </g>
        <g
           id="g62"
           transform="translate(380.0659,531.605)">
          <path
             d="m 0,0 c 0.044,-2.748 -0.034,-5.479 -0.257,-8.168 -0.274,-3.292 -0.415,-6.577 -0.924,-9.653 -0.361,-2.178 -0.938,-2.27 -1.328,0 -0.525,3.056 -0.651,6.361 -0.924,9.653 -0.223,2.689 -0.301,5.42 -0.257,8.168 -3.579,0.946 -6.419,4.579 -7.248,9.239 2.542,-1.513 5.688,-2.409 9.093,-2.409 3.406,0 6.55,0.896 9.093,2.409 C 6.418,4.579 3.578,0.946 0,0 m 12.909,-14.909 c -0.322,4.031 -0.976,8.037 -1.977,12.009 -1.154,4.578 -1.985,9.166 -3.12,13.663 -1.03,4.076 -2.309,8.078 -4.316,11.931 -3.136,6.02 -7.781,5.775 -10.682,0 -2.111,-4.2 -3.435,-8.549 -4.524,-12.971 -1.027,-4.163 -1.846,-8.39 -2.913,-12.623 -1.001,-3.972 -1.655,-7.978 -1.976,-12.009 -0.499,-6.247 3.585,-11.632 8.72,-11.632 H 4.189 c 5.135,0 9.219,5.385 8.72,11.632"
             style="fill:#ffffff;fill-opacity:1;fill-rule:nonzero;stroke:none"
             id="path64" />
        </g>
        <g
           id="g66"
           transform="translate(369.1284,540.8437)">
          <path
             d="m 0,0 c 0.829,-4.66 3.669,-8.292 7.248,-9.239 -0.045,-2.747 0.033,-5.479 0.256,-8.168 0.274,-3.292 0.4,-6.596 0.925,-9.653 0.389,-2.27 0.967,-2.178 1.327,0 0.509,3.076 0.651,6.361 0.924,9.653 0.223,2.689 0.301,5.421 0.258,8.168 C 14.516,-8.292 17.356,-4.66 18.185,0 15.643,-1.513 12.498,-2.409 9.092,-2.409 5.687,-2.409 2.542,-1.513 0,0"
             style="fill:#f3921a;fill-opacity:1;fill-rule:nonzero;stroke:none"
             id="path68" />
        </g>
        <g
           id="g70"
           transform="translate(507.3594,562.8389)">
          <path
             d="m 0,0 c -1.502,-6.594 -6.515,-11.732 -12.833,-13.539 0.417,-2.134 0.854,-4.586 1.314,-7.352 1.033,-0.784 2.267,-1.309 3.704,-1.495 3.696,-0.481 7.456,-0.829 11.172,-0.72 2.356,0.069 4.438,0.593 6.207,1.595 1.09,4.422 2.414,8.771 4.525,12.971 2.901,5.775 7.546,6.02 10.682,0 2.006,-3.853 3.286,-7.855 4.315,-11.931 1.081,-0.907 2.379,-1.533 3.873,-1.904 4.917,-1.217 9.83,-1.214 14.797,-0.162 3.569,0.757 5.939,2.734 7.084,6.141 0.842,2.508 1.586,5.051 2.27,7.607 0.388,1.448 0.554,2.921 2.192,3.64 0.316,0.139 0.515,0.861 0.528,1.321 0.055,2.065 0.024,4.133 0.024,6.608 C 55.837,3.43 51.921,4.297 47.959,4.656 40.502,5.332 33.119,5.04 25.963,2.325 22.172,0.886 18.19,0.918 14.354,2.318 12.008,3.175 9.629,3.808 7.214,4.237 5.371,2.107 2.854,0.586 0,0"
             style="fill:#4e4a99;fill-opacity:1;fill-rule:nonzero;stroke:none"
             id="path72" />
        </g>
        <g
           id="g74"
           transform="translate(528.6338,531.605)">
          <path
             d="m 0,0 c 0.044,-2.748 -0.034,-5.479 -0.257,-8.168 -0.273,-3.292 -0.415,-6.577 -0.924,-9.653 -0.361,-2.178 -0.938,-2.27 -1.328,0 -0.524,3.056 -0.65,6.361 -0.924,9.653 -0.223,2.689 -0.301,5.42 -0.256,8.168 -3.58,0.946 -6.419,4.579 -7.249,9.239 2.542,-1.513 5.688,-2.409 9.093,-2.409 3.406,0 6.55,0.896 9.092,2.409 C 6.419,4.579 3.578,0.946 0,0 m 12.909,-14.909 c -0.321,4.031 -0.975,8.037 -1.976,12.009 -1.155,4.578 -1.986,9.166 -3.121,13.663 -1.03,4.076 -2.309,8.078 -4.316,11.931 -3.136,6.02 -7.78,5.775 -10.682,0 -2.111,-4.2 -3.434,-8.549 -4.524,-12.971 -1.026,-4.163 -1.846,-8.39 -2.912,-12.623 -1.001,-3.972 -1.655,-7.978 -1.977,-12.009 -0.499,-6.247 3.585,-11.632 8.72,-11.632 H 4.189 c 5.135,0 9.219,5.385 8.72,11.632"
             style="fill:#ffffff;fill-opacity:1;fill-rule:nonzero;stroke:none"
             id="path76" />
        </g>
        <g
           id="g78"
           transform="translate(517.6963,540.8437)">
          <path
             d="m 0,0 c 0.829,-4.66 3.669,-8.292 7.248,-9.239 -0.045,-2.747 0.033,-5.479 0.257,-8.168 0.273,-3.292 0.399,-6.596 0.924,-9.653 0.389,-2.27 0.967,-2.178 1.328,0 0.509,3.076 0.65,6.361 0.924,9.653 0.222,2.689 0.3,5.421 0.257,8.168 C 14.516,-8.292 17.356,-4.66 18.186,0 15.643,-1.513 12.498,-2.409 9.093,-2.409 5.687,-2.409 2.542,-1.513 0,0"
             style="fill:#f3921a;fill-opacity:1;fill-rule:nonzero;stroke:none"
             id="path80" />
        </g>
        <g
           id="g82"
           transform="translate(556.8232,524.4712)">
          <path
             d="M 0,0 C 1.979,-8.593 4.503,-27.163 7.066,-48.673 4.822,-28.367 2.502,-10.095 0,0"
             style="fill:#f3921a;fill-opacity:1;fill-rule:nonzero;stroke:none"
             id="path84" />
        </g>
        <g
           id="g86"
           transform="translate(403.6958,603.4707)">
          <path
             d="m 0,0 c 8.106,2.509 16.254,3.258 24.526,3.104 6.097,-0.113 11.997,-1.146 17.745,-3.244 4.783,-1.746 9.747,-1.786 14.474,0.008 8.922,3.385 18.128,3.749 27.425,2.906 4.941,-0.447 9.824,-1.528 14.831,-2.339 0,-3.086 0.041,-5.664 -0.029,-8.239 -0.015,-0.573 -0.264,-1.474 -0.659,-1.648 -2.042,-0.896 -2.249,-2.733 -2.732,-4.538 -0.853,-3.186 -1.782,-6.358 -2.831,-9.484 -1.426,-4.249 -4.382,-6.714 -8.833,-7.657 -6.193,-1.313 -12.318,-1.316 -18.449,0.202 -3.383,0.838 -5.995,2.682 -7.549,5.891 -1.896,3.915 -3.724,7.868 -5.787,11.694 -0.518,0.961 -1.783,2.008 -2.77,2.075 -0.798,0.054 -1.987,-1.142 -2.489,-2.064 -1.5,-2.756 -2.935,-5.578 -4.055,-8.504 -2.527,-6.608 -7.494,-9.805 -14.259,-10.004 -4.635,-0.137 -9.322,0.299 -13.931,0.898 -3.965,0.515 -6.765,3.004 -8.099,6.8 -1.198,3.411 -2.014,6.956 -3.218,10.364 -0.53,1.499 -1.618,2.798 -2.424,4.204 C 0.554,-8.995 0.064,-8.382 0.04,-7.769 -0.057,-5.273 0,-2.771 0,0"
             style="fill:#f8ab14;fill-opacity:1;fill-rule:nonzero;stroke:none"
             id="path88" />
        </g>
        <g
           id="g90"
           transform="translate(468.2256,557.8799)">
          <path
             d="m 0,0 c -2.742,10.881 -4.008,21.808 -9.272,31.912 -3.91,7.506 -9.701,7.2 -13.319,0 C -27.7,21.744 -29.121,10.881 -31.863,0 c -1.248,-4.953 -2.064,-9.949 -2.465,-14.973 -0.622,-7.79 4.471,-14.505 10.873,-14.505 h 15.047 c 6.403,0 11.495,6.715 10.873,14.505 C 2.064,-9.949 1.248,-4.953 0,0"
             style="fill:#ffffff;fill-opacity:1;fill-rule:nonzero;stroke:none"
             id="path92" />
        </g>
        <g
           id="g94"
           transform="translate(463.6313,573.0146)">
          <path
             d="m 0,0 c -3.17,-1.886 -7.091,-3.003 -11.337,-3.003 -4.246,0 -8.167,1.117 -11.337,3.003 1.033,-5.81 4.574,-10.339 9.036,-11.519 -0.055,-3.426 0.043,-6.833 0.321,-10.185 0.341,-4.104 0.498,-8.225 1.152,-12.036 0.486,-2.831 1.206,-2.715 1.655,0 0.635,3.835 0.812,7.932 1.153,12.036 0.278,3.352 0.375,6.759 0.32,10.185 C -4.575,-10.339 -1.034,-5.81 0,0"
             style="fill:#4e4a99;fill-opacity:1;fill-rule:nonzero;stroke:none"
             id="path96" />
        </g>
        <g
           id="g98"
           transform="translate(355.231,435.2246)">
          <path
             d="m 0,0 c 20.023,0 37.283,23.363 46.693,56.308 2.222,17.964 4.676,36.287 6.898,49.5 -0.696,-0.308 -1.45,-0.556 -2.275,-0.73 -4.967,-1.053 -9.88,-1.056 -14.797,0.162 -1.494,0.37 -2.792,0.996 -3.873,1.904 1.136,-4.498 1.967,-9.085 3.121,-13.664 1.001,-3.971 1.655,-7.978 1.977,-12.008 0.499,-6.247 -3.585,-11.633 -8.72,-11.633 H 16.956 c -5.135,0 -9.219,5.386 -8.72,11.633 0.321,4.03 0.975,8.037 1.976,12.008 1.067,4.233 1.886,8.46 2.913,12.624 -1.77,-1.003 -3.852,-1.526 -6.208,-1.596 -3.716,-0.109 -7.476,0.24 -11.172,0.72 -3.18,0.413 -5.425,2.41 -6.495,5.454 -0.961,2.735 -1.616,5.579 -2.582,8.312 -0.424,1.203 -1.297,2.244 -1.944,3.372 -0.267,0.465 -0.66,0.957 -0.679,1.448 -0.077,2.002 -0.032,4.008 -0.032,6.231 6.501,2.013 13.037,2.613 19.671,2.49 4.889,-0.091 9.622,-0.92 14.231,-2.602 3.836,-1.4 7.817,-1.433 11.608,0.006 1.828,0.693 3.671,1.227 5.526,1.628 -1.982,2.158 -3.254,4.985 -3.418,8.127 -0.138,2.645 0.513,5.188 1.82,7.363 -3.976,3.429 -6.37,8.472 -6.37,13.882 0,2.995 0.716,5.824 1.986,8.328 -1.759,1.098 -3.834,1.739 -6.063,1.739 -5.785,0 -10.559,-4.278 -11.363,-9.84 -1.325,1.699 -3.386,2.796 -5.707,2.796 -3.6,0 -6.577,-2.63 -7.135,-6.072 -2.736,9.026 -2.828,16.951 -3.578,27.495 -0.245,3.447 -4.114,6.49 -8.062,1.441 -9.58,-12.251 -9.149,-31.314 -6.452,-35.541 1.091,-1.71 2.75,-3.135 4.648,-4.082 -3.924,-0.084 -7.08,-3.285 -7.08,-7.229 0,-1.677 0.575,-3.215 1.531,-4.442 -5.511,-0.849 -9.735,-5.598 -9.735,-11.347 0,-4.687 2.808,-8.711 6.83,-10.501 -2.033,-1.374 -3.322,-3.742 -3.185,-6.371 0.208,-3.992 3.613,-7.059 7.604,-6.851 0.114,0.006 0.224,0.023 0.336,0.035 0.012,-0.591 0.082,-1.165 0.18,-1.73 0.934,-5.41 5.628,-9.53 11.304,-9.53 0.008,0 0.016,0.001 0.025,0.001 -3.18,-13.761 -8.066,-53.152 -12.013,-89.215 0.223,2.044 0.704,4.099 0.932,6.159 C -12.23,2.183 -6.371,0 0,0"
             style="fill:#f8ab14;fill-opacity:1;fill-rule:nonzero;stroke:none"
             id="path100" />
        </g>
        <g
           id="g102"
           transform="translate(396.1519,441.7871)">
          <path
             d="m 0,0 c 1.274,11.643 3.39,30.482 5.772,49.746 -9.41,-32.945 -26.669,-56.308 -46.693,-56.308 -6.371,0 -12.23,2.182 -17.916,6.181 -0.228,-2.059 -0.708,-4.114 -0.932,-6.158 -0.401,-3.663 -0.745,-7.279 -1.077,-10.843 18.094,1.488 38.096,2.644 59.456,3.393 C -0.964,-9.413 -0.518,-4.73 0,0"
             style="fill:#f3921a;fill-opacity:1;fill-rule:nonzero;stroke:none"
             id="path104" />
        </g>
        <g
           id="g106"
           transform="translate(556.8232,524.4712)">
          <path
             d="m 0,0 c 5.569,0.089 10.157,4.138 11.108,9.454 0.105,0.586 0.179,1.183 0.191,1.796 0.112,-0.011 0.222,-0.029 0.336,-0.035 3.992,-0.208 7.396,2.86 7.604,6.851 0.137,2.63 -1.152,4.997 -3.184,6.371 4.021,1.791 6.83,5.814 6.83,10.501 0,5.749 -4.225,10.498 -9.736,11.347 0.956,1.227 1.532,2.766 1.532,4.442 0,3.944 -3.157,7.145 -7.08,7.23 1.897,0.946 3.556,2.372 4.647,4.081 2.697,4.227 3.129,23.29 -6.451,35.541 -3.948,5.049 -7.817,2.006 -8.063,-1.44 -0.75,-10.545 -0.841,-18.47 -3.578,-27.495 -0.558,3.441 -3.535,6.072 -7.135,6.072 -2.307,0 -4.358,-1.084 -5.683,-2.766 -0.817,5.547 -5.584,9.809 -11.359,9.809 -2.374,0 -4.571,-0.729 -6.4,-1.963 1.199,-2.448 1.874,-5.197 1.874,-8.104 0,-5.409 -2.393,-10.452 -6.37,-13.881 1.307,-2.175 1.958,-4.718 1.82,-7.363 -0.156,-3.004 -1.32,-5.725 -3.153,-7.844 2.415,-0.429 4.794,-1.062 7.141,-1.918 3.836,-1.4 7.817,-1.432 11.608,0.006 7.156,2.715 14.539,3.007 21.996,2.332 3.962,-0.359 7.878,-1.226 11.895,-1.877 0,-2.475 0.031,-4.542 -0.024,-6.607 C 10.354,34.08 10.154,33.357 9.838,33.218 8.2,32.5 8.034,31.026 7.646,29.579 6.962,27.023 6.218,24.479 5.376,21.972 4.231,18.564 1.861,16.587 -1.708,15.831 c -4.968,-1.053 -9.88,-1.056 -14.797,0.162 -1.494,0.37 -2.792,0.996 -3.873,1.904 1.136,-4.498 1.967,-9.085 3.121,-13.663 1.001,-3.972 1.655,-7.979 1.977,-12.009 0.499,-6.247 -3.585,-11.632 -8.72,-11.632 h -12.068 c -5.135,0 -9.219,5.385 -8.721,11.632 0.322,4.03 0.976,8.037 1.977,12.009 1.067,4.232 1.886,8.46 2.913,12.623 -1.77,-1.003 -3.853,-1.526 -6.207,-1.595 -3.717,-0.11 -7.477,0.239 -11.173,0.719 -1.437,0.187 -2.671,0.712 -3.703,1.496 3.068,-18.473 7.107,-51.23 12.463,-100.918 0.187,-1.732 0.377,-3.502 0.57,-5.298 C -24.065,-83.969 -4.971,-45.97 0,0"
             style="fill:#f8ab14;fill-opacity:1;fill-rule:nonzero;stroke:none"
             id="path108" />
        </g>
        <g
           id="g110"
           transform="translate(568.2695,434.6465)">
          <path
             d="m 0,0 c -1.447,13.428 -2.897,27.732 -4.38,41.151 -2.563,21.511 -5.087,40.08 -7.066,48.674 -4.971,-45.971 -24.066,-83.97 -47.95,-88.739 0.274,-2.552 0.554,-5.186 0.845,-7.917 21.424,-0.744 41.49,-1.895 59.644,-3.383 C 0.735,-6.854 0.371,-3.449 0,0"
             style="fill:#f3921a;fill-opacity:1;fill-rule:nonzero;stroke:none"
             id="path112" />
        </g>
        <g
           id="g114"
           transform="translate(505.3672,427.9609)">
          <path
             d="M 0,0 C 0.104,-0.003 0.21,-0.006 0.314,-0.01 -0.128,4.148 -0.579,8.373 -1.04,12.641 -2.887,29.779 -4.859,47.546 -6.813,63.945 -4.965,47.216 -3.157,29.382 -1.353,12.641 -0.894,8.376 -0.441,4.155 0,0"
             style="fill:#4e4a99;fill-opacity:1;fill-rule:nonzero;stroke:none"
             id="path116" />
        </g>
        <g
           id="g118"
           transform="translate(489.7432,552.6006)">
          <path
             d="M 0,0 C 2.468,-10.715 5.614,-33.872 8.811,-60.695 6.013,-35.373 3.12,-12.588 0,0"
             style="fill:#3e3a78;fill-opacity:1;fill-rule:nonzero;stroke:none"
             id="path120" />
        </g>
        <g
           id="g122"
           transform="translate(400.1279,441.3516)">
          <path
             d="m 0,0 c -0.496,-4.53 -0.982,-9.013 -1.458,-13.422 0.041,0.001 0.081,0.003 0.122,0.004 C -0.925,-9.011 -0.496,-4.529 0,0"
             style="fill:#3e3a78;fill-opacity:1;fill-rule:nonzero;stroke:none"
             id="path124" />
        </g>
      </g>
    </g>
  </g>
</svg>
